<?xml version="1.0" standalone="no"?>
<!DOCTYPE svg PUBLIC "-//W3C//DTD SVG 20010904//EN"
 "http://www.w3.org/TR/2001/REC-SVG-20010904/DTD/svg10.dtd">
<svg version="1.0" xmlns="http://www.w3.org/2000/svg"
 width="512.000000pt" height="512.000000pt" viewBox="0 0 512.000000 512.000000"
 preserveAspectRatio="xMidYMid meet">

<g transform="translate(0.000000,512.000000) scale(0.100000,-0.100000)"
fill="#000000" stroke="none">
<path d="M2415 5106 c-94 -18 -216 -67 -295 -117 -46 -30 -279 -255 -814 -788
-411 -410 -774 -779 -807 -818 -105 -131 -164 -283 -176 -450 -28 -409 268
-777 677 -842 238 -39 495 45 686 222 l73 68 3 -858 c4 -929 0 -872 58 -1025
50 -134 182 -291 316 -374 479 -298 1103 -23 1210 534 11 60 14 231 14 900 l0
825 68 -64 c81 -78 107 -97 198 -142 290 -145 628 -117 864 72 122 98 212 222
261 359 95 269 47 554 -130 774 -32 40 -393 407 -802 815 -783 780 -817 811
-957 863 -144 54 -314 72 -447 46z m235 -316 c29 -5 80 -22 114 -37 56 -24
119 -85 844 -807 735 -733 785 -785 819 -853 93 -187 58 -400 -90 -547 -148
-148 -355 -184 -546 -95 -55 25 -96 61 -280 244 -119 117 -229 219 -245 224
-73 28 -151 4 -200 -62 -21 -28 -21 -32 -26 -1095 l-5 -1067 -23 -56 c-88
-220 -305 -348 -525 -311 -175 30 -309 141 -380 315 -22 52 -22 55 -27 1119
-5 1063 -5 1067 -26 1095 -49 66 -127 90 -201 62 -15 -5 -111 -95 -213 -198
-198 -200 -281 -264 -387 -300 -241 -81 -528 82 -595 338 -32 123 -18 237 43
351 44 82 1560 1596 1637 1634 103 52 203 67 312 46z"/>
</g>
</svg>
